<svg width="15" height="11" viewBox="0 0 15 11" fill="none" xmlns="http://www.w3.org/2000/svg">
<path d="M14.8187 0.970368C14.708 0.915681 14.5777 0.934759 14.4855 1.01828C12.2024 3.07099 9.28863 5.70214 8.37188 6.57829C7.85733 7.07091 7.14322 7.07091 6.62748 6.57764C5.65031 5.64385 2.3782 2.69358 0.514512 1.01825C0.421729 0.934728 0.291123 0.916302 0.18126 0.970337C0.0708105 1.02475 0 1.14192 0 1.27106V9.60624C0 10.3374 0.560596 10.932 1.25001 10.932H13.75C14.4394 10.932 15 10.3374 15 9.60624V1.27106C15 1.14192 14.9292 1.02443 14.8187 0.970368Z" fill="black"/>
</svg>
