<svg width="24" height="24" viewBox="0 0 24 24" fill="none" xmlns="http://www.w3.org/2000/svg">
<path d="M23.9655 9.24643C23.8829 8.99186 23.6629 8.80632 23.398 8.76789L15.9579 7.68672L12.6305 0.944853C12.5121 0.704854 12.2677 0.552933 12 0.552933C11.7324 0.552933 11.488 0.704854 11.3695 0.944853L8.04198 7.68672L0.602007 8.76789C0.337211 8.80632 0.117134 8.99186 0.0344468 9.24639C-0.0482873 9.50096 0.0207125 9.78038 0.212384 9.96718L5.59586 15.215L4.32518 22.6251C4.2799 22.8889 4.38837 23.1555 4.60488 23.3128C4.72737 23.4018 4.87244 23.4471 5.01822 23.4471C5.13016 23.4471 5.24247 23.4204 5.34532 23.3663L12 19.8677L18.6544 23.3663C18.8913 23.4908 19.1784 23.4701 19.3949 23.3128C19.6114 23.1555 19.7199 22.8888 19.6747 22.625L18.4036 15.215L23.7877 9.96713C23.9793 9.78038 24.0483 9.50096 23.9655 9.24643Z" fill="#FD5A01"/>
</svg>
