<svg width="24" height="24" viewBox="0 0 24 24" fill="none" xmlns="http://www.w3.org/2000/svg">
<g clip-path="url(#clip0)">
<path d="M23.2174 12.7826H8.08681C7.65481 12.7826 7.3042 12.432 7.3042 12C7.3042 11.568 7.65481 11.2174 8.08681 11.2174H23.2174C23.6494 11.2174 24 11.568 24 12C24 12.432 23.6494 12.7826 23.2174 12.7826Z" fill="black" fill-opacity="0.5"/>
<path d="M12.261 16.9565C12.0605 16.9565 11.8603 16.8804 11.7078 16.727L7.53397 12.5531C7.22826 12.2472 7.22826 11.7516 7.53397 11.4459L11.7078 7.27207C12.0135 6.96636 12.5091 6.96636 12.815 7.27207C13.1207 7.57777 13.1207 8.0734 12.815 8.37911L9.19414 12L12.815 15.6209C13.1207 15.9266 13.1207 16.4222 12.815 16.728C12.6616 16.8804 12.4612 16.9565 12.261 16.9565Z" fill="black" fill-opacity="0.5"/>
<path d="M11.4783 23.4783C5.14963 23.4783 0 18.3287 0 12C0 5.67129 5.14963 0.521667 11.4783 0.521667C16.2271 0.521667 20.4199 3.37869 22.1614 7.80111C22.32 8.20273 22.1217 8.65671 21.7201 8.81625C21.3183 8.97292 20.8643 8.77765 20.7047 8.37393C19.201 4.5547 15.5792 2.08688 11.4783 2.08688C6.01248 2.08688 1.56522 6.53434 1.56522 12C1.56522 17.4656 6.01248 21.9131 11.4783 21.9131C15.5792 21.9131 19.201 19.4453 20.7047 15.6272C20.8633 15.2233 21.3173 15.0282 21.7201 15.1847C22.1217 15.3433 22.32 15.7982 22.1614 16.2C20.4199 20.6213 16.2271 23.4783 11.4783 23.4783Z" fill="black" fill-opacity="0.5"/>
</g>
<defs>
<clipPath id="clip0">
<rect width="24" height="24" fill="white"/>
</clipPath>
</defs>
</svg>
