<svg width="32" height="35" viewBox="0 0 32 35" fill="none" xmlns="http://www.w3.org/2000/svg">
<path d="M30.5 5.3387H1.5C1.23478 5.3387 0.98043 5.45119 0.792893 5.65143C0.605357 5.85167 0.5 6.12326 0.5 6.40644V27.7613C0.5 28.0445 0.605357 28.316 0.792893 28.5163C0.98043 28.7165 1.23478 28.829 1.5 28.829H30.5C30.7652 28.829 31.0196 28.7165 31.2071 28.5163C31.3946 28.316 31.5 28.0445 31.5 27.7613V6.40644C31.5 6.12326 31.3946 5.85167 31.2071 5.65143C31.0196 5.45119 30.7652 5.3387 30.5 5.3387ZM30.5 6.40644V24.3376L19.8535 12.9693C19.7597 12.8692 19.6326 12.813 19.5 12.813C19.3674 12.813 19.2403 12.8692 19.1465 12.9693L14.5 17.9306L11.8535 15.1048C11.7597 15.0047 11.6326 14.9485 11.5 14.9485C11.3674 14.9485 11.2403 15.0047 11.1465 15.1048L1.5 25.4048V6.40644H30.5ZM1.5 27.7613V26.9146L11.5 16.2371L17.1465 22.2661C17.2408 22.3634 17.3671 22.4172 17.4982 22.416C17.6293 22.4148 17.7547 22.3586 17.8474 22.2596C17.9401 22.1607 17.9927 22.0268 17.9938 21.8868C17.995 21.7468 17.9446 21.6119 17.8535 21.5112L15.207 18.6855L19.5 14.1017L30.5 25.8468V27.7613H1.5Z" fill="#777777"/>
<path d="M18.8536 22.579C18.7593 22.4818 18.633 22.428 18.5019 22.4292C18.3708 22.4304 18.2454 22.4866 18.1527 22.5856C18.06 22.6845 18.0074 22.8184 18.0063 22.9584C18.0052 23.0984 18.0556 23.2333 18.1466 23.3339L18.6466 23.8678C18.7409 23.9651 18.8672 24.0189 18.9983 24.0177C19.1294 24.0164 19.2548 23.9603 19.3476 23.8613C19.4403 23.7623 19.4928 23.6284 19.494 23.4884C19.4951 23.3485 19.4447 23.2136 19.3536 23.1129L18.8536 22.579Z" fill="#777777"/>
<path d="M11.5 13.3468C11.9945 13.3468 12.4778 13.1902 12.8889 12.8969C13.3 12.6036 13.6205 12.1867 13.8097 11.6989C13.9989 11.2112 14.0484 10.6744 13.952 10.1566C13.8555 9.63884 13.6174 9.16321 13.2678 8.78989C12.9181 8.41658 12.4727 8.16235 11.9877 8.05935C11.5028 7.95635 11.0001 8.00921 10.5433 8.21125C10.0865 8.41329 9.69603 8.75543 9.42133 9.1944C9.14662 9.63337 9 10.1495 9 10.6774C9.00079 11.3851 9.26444 12.0636 9.73311 12.564C10.2018 13.0644 10.8372 13.3459 11.5 13.3468ZM11.5 9.0758C11.7967 9.0758 12.0867 9.16973 12.3334 9.34572C12.58 9.52171 12.7723 9.77184 12.8858 10.0645C12.9993 10.3572 13.0291 10.6792 12.9712 10.9899C12.9133 11.3006 12.7704 11.5859 12.5607 11.8099C12.3509 12.0339 12.0836 12.1864 11.7926 12.2482C11.5017 12.31 11.2001 12.2783 10.926 12.1571C10.6519 12.0359 10.4176 11.8306 10.2528 11.5672C10.088 11.3038 10 10.9942 10 10.6774C10 10.2526 10.158 9.84526 10.4393 9.5449C10.7206 9.24454 11.1022 9.0758 11.5 9.0758Z" fill="#777777"/>
<path d="M22.5 8.54194H23C23.1326 8.54194 23.2598 8.48569 23.3536 8.38557C23.4473 8.28545 23.5 8.14966 23.5 8.00807C23.5 7.86648 23.4473 7.73068 23.3536 7.63056C23.2598 7.53044 23.1326 7.4742 23 7.4742H22.5C22.3674 7.4742 22.2402 7.53044 22.1464 7.63056C22.0527 7.73068 22 7.86648 22 8.00807C22 8.14966 22.0527 8.28545 22.1464 8.38557C22.2402 8.48569 22.3674 8.54194 22.5 8.54194Z" fill="#777777"/>
<path d="M24.5 8.54194H29C29.1326 8.54194 29.2598 8.48569 29.3536 8.38557C29.4473 8.28545 29.5 8.14966 29.5 8.00807C29.5 7.86648 29.4473 7.73068 29.3536 7.63056C29.2598 7.53044 29.1326 7.4742 29 7.4742H24.5C24.3674 7.4742 24.2402 7.53044 24.1464 7.63056C24.0527 7.73068 24 7.86648 24 8.00807C24 8.14966 24.0527 8.28545 24.1464 8.38557C24.2402 8.48569 24.3674 8.54194 24.5 8.54194Z" fill="#777777"/>
</svg>
