<svg width="15" height="18" viewBox="0 0 15 18" fill="none" xmlns="http://www.w3.org/2000/svg">
<path d="M9.15207 9.15234L14.7604 2.91342C14.9146 2.74168 14.9998 2.51255 15 2.26823C15 2.02377 14.9149 1.79438 14.7604 1.62291L14.2689 1.07634C14.1144 0.904188 13.9084 0.809906 13.6885 0.809906C13.469 0.809906 13.263 0.904188 13.1085 1.07634L7.50024 7.31485L1.89171 1.07634C1.73744 0.904188 1.53134 0.809906 1.31159 0.809906C1.09207 0.809906 0.885976 0.904188 0.731707 1.07634L0.24 1.62291C-0.08 1.97887 -0.08 2.55786 0.24 2.91342L5.84841 9.15234L0.24 15.391C0.0856098 15.563 0.000609756 15.7921 0.000609756 16.0364C0.000609756 16.2808 0.0856098 16.5099 0.24 16.6818L0.731585 17.2283C0.885854 17.4004 1.09207 17.4948 1.31146 17.4948C1.53122 17.4948 1.73732 17.4004 1.89159 17.2283L7.50012 10.9897L13.1084 17.2283C13.2629 17.4004 13.4689 17.4948 13.6884 17.4948H13.6887C13.9083 17.4948 14.1143 17.4004 14.2688 17.2283L14.7602 16.6818C14.9145 16.51 14.9996 16.2808 14.9996 16.0364C14.9996 15.7921 14.9145 15.563 14.7602 15.3911L9.15207 9.15234Z" fill="#777777"/>
</svg>
