<svg width="18" height="19" viewBox="0 0 18 19" fill="none" xmlns="http://www.w3.org/2000/svg">
<g clip-path="url(#clip0)">
<path d="M17.0325 -2.91321e-05H0.984629C0.701588 -0.00057642 0.442103 0.161055 0.312718 0.418462C0.181547 0.679335 0.204569 0.993476 0.372146 1.23173L6.25142 9.69787C6.25338 9.70079 6.25552 9.70352 6.25749 9.70644C6.47111 10.0012 6.58657 10.3583 6.58729 10.7253V17.6277C6.58604 17.8322 6.66456 18.0285 6.80555 18.1735C6.94653 18.3185 7.1382 18.3999 7.33808 18.3999C7.4398 18.3999 7.54028 18.3791 7.63415 18.3393L10.9378 17.0516C11.2339 16.9593 11.4304 16.6738 11.4304 16.3299V10.7253C11.4309 10.3584 11.5466 10.0012 11.76 9.70644C11.762 9.70352 11.7641 9.70079 11.7661 9.69787L17.6452 1.23136C17.8128 0.993294 17.8358 0.679335 17.7046 0.418462C17.5752 0.161055 17.3157 -0.00057642 17.0325 -2.91321e-05ZM11.0233 9.15314C10.695 9.60866 10.5174 10.1594 10.5163 10.7253V16.2164L7.50102 17.3916V10.7253C7.49994 10.1594 7.32237 9.60866 6.99382 9.15314L1.28605 0.934005H16.7313L11.0233 9.15314Z" fill="#202A49"/>
</g>
<defs>
<clipPath id="clip0">
<rect width="18" height="18.4" fill="white"/>
</clipPath>
</defs>
</svg>
