<svg width="108" height="22" viewBox="0 0 108 22" fill="none" xmlns="http://www.w3.org/2000/svg">
<path d="M5.55793 6.0963C5.18555 5.05122 3.45665 4.29644 1.40857 4.3545C2.07353 8.76705 -0.267136 12.6861 0.0254471 16.1116C0.158439 17.3599 0.903197 18.6372 2.33952 19.0146C3.72264 19.392 5.29195 18.9856 6.46228 18.1728C9.06893 16.3148 12.1544 12.9183 13.9631 7.08332C14.4684 5.10928 10.3457 3.59972 10.3723 3.80293C10.5319 5.39958 8.19118 11.4668 4.09502 15.6762C4.06842 11.8733 6.43568 8.6219 5.55793 6.0963Z" fill="#FD5A01"/>
<path d="M21.455 8.47673C22.8913 8.47673 22.7849 10.8282 22.7849 10.8282C22.7583 11.2926 26.6949 9.40569 26.5885 6.7059C26.5353 5.05119 25.4182 4.03514 23.6627 4.12223C22.4392 4.12223 21.455 4.78992 20.6305 5.92209C20.4177 4.9641 18.6356 4.18029 16.4545 4.0932C16.5077 7.31553 12.7839 13.6731 12.7573 16.6922C12.7307 19.3049 15.0714 19.8565 17.7312 18.6953C17.0929 16.9245 19.3005 8.53479 21.455 8.47673Z" fill="#FD5A01"/>
<path d="M35.3305 8.56382C34.3198 11.9313 33.0164 14.3118 32.9898 16.6922C32.9632 19.3339 35.3039 19.8855 37.9637 18.6953C37.8308 18.3179 37.7776 17.8824 37.7776 17.418C37.884 12.8312 43.9218 6.56075 43.31 8.56382C42.2727 11.9313 40.9694 14.3118 40.9694 16.6922C40.9428 19.3339 43.2834 19.8855 45.9433 18.6953C44.7464 15.4439 49.6671 7.95419 48.8691 5.16731C48.5233 3.97708 46.7678 3.74484 44.9325 4.6738C43.4962 5.39955 42.0067 6.4156 40.6236 8.01225C40.9428 6.85105 41.1024 5.86403 40.8896 5.16731C40.5438 3.97708 38.7883 3.74484 36.9796 4.6738C35.5965 5.37052 34.1602 6.32851 32.8036 7.80904C32.9898 7.05426 33.0696 6.35754 32.9632 5.835C32.7504 4.87701 30.9949 4.18029 28.8139 4.0932C28.8671 7.31553 25.1433 13.6731 25.1167 16.6922C25.0901 19.3049 27.4307 19.8565 30.0906 18.6953C29.798 17.8534 29.8512 16.8083 30.1172 15.6471C31.3673 11.4088 35.8625 6.82202 35.3305 8.56382Z" fill="#FD5A01"/>
<path d="M69.8376 16.2277C69.811 18.405 71.0877 19.5662 72.524 19.8855C73.8805 20.1758 76.6202 19.5662 77.5777 17.6792C78.0299 16.8083 77.7905 16.46 77.6575 16.518C76.9394 17.0406 75.1041 17.447 74.9711 15.8504C74.8115 13.6441 76.2744 10.9153 77.4181 7.89615C77.9501 7.89615 78.5619 7.86712 79.2268 7.78003C80.5568 7.63488 81.0887 5.77696 80.5302 4.81897C79.679 4.96412 78.9609 5.05121 78.3225 5.05121C78.5619 4.00613 78.7215 2.96106 78.7215 1.88695C78.6949 0.928959 76.6202 0.0870888 74.4391 0C74.3859 1.68374 74.0933 3.28038 73.6678 4.76091C73.2954 4.76091 72.8698 4.78994 72.4176 4.81897C70.6621 4.96412 70.1833 7.19943 70.6355 7.78003C71.4069 7.69294 72.0984 7.66391 72.7102 7.66391C71.4335 11.0604 69.8642 13.9053 69.8376 16.2277Z" fill="#FD5A01"/>
<path d="M87.7029 16.16C86.24 16.16 85.3357 15.5214 85.0165 14.4182C88.0753 14.5634 92.5438 12.9377 93.794 10.0928C95.0973 7.1317 93.1822 4.46094 89.751 4.60609C84.9633 4.60609 81.3193 8.35096 80.3085 12.5022C79.2978 16.6245 81.2129 19.9339 86.0006 19.6726C90.4958 19.6726 93.2886 14.9117 92.0385 14.3021C90.9213 15.3472 89.5914 16.131 87.7029 16.16ZM88.8733 7.56715C89.618 7.56715 90.0702 7.91551 90.0702 8.72834C90.0702 10.8185 86.9582 11.5152 85.2293 11.7475C85.7878 10.1798 87.0646 7.59618 88.8733 7.56715Z" fill="#FD5A01"/>
<path d="M98.7501 13.6345C100.931 14.6795 100.585 15.6666 100.293 16.1891C99.9736 16.7116 99.2289 17.2342 98.4309 16.8278C97.4734 16.3633 97.5 15.3182 97.6596 14.186C97.7128 13.9248 94.6805 13.5183 93.6964 15.6666C92.6059 18.076 95.0263 19.7017 98.2447 19.7888C101.224 19.8759 103.511 19.034 104.974 17.031C106.57 14.8247 105.958 12.4152 102.713 10.6734C101.862 10.2089 100.16 9.57026 100.665 8.20586C100.931 7.48011 101.57 7.18981 102.314 7.24787C103.884 7.33496 103.937 8.52518 103.777 9.65735C103.751 9.91862 106.357 10.0638 107.102 7.91555C107.794 5.85443 106.012 4.40293 102.766 4.63517C99.2821 4.86741 97.367 5.99958 96.436 7.74138C95.2125 10.0347 96.1701 12.4442 98.7501 13.6345Z" fill="#FD5A01"/>
<path d="M62.116 9.42359C62.6333 10.3481 62.8049 11.4542 62.5952 12.5128L64.7321 14.5621L67.4648 13.7139C67.6033 13.0272 67.6731 12.3262 67.6729 11.6231C67.676 9.62019 67.1061 7.66612 66.0427 6.03323L64.9546 8.87235L62.116 9.42359Z" fill="#F29461"/>
<path d="M56.6954 15.165C55.8688 14.5787 55.2782 13.6709 55.0439 12.6263L52.2807 11.7841L50.1731 13.8233C50.4552 15.1346 50.9849 16.3674 51.7285 17.4429C52.4722 18.5183 53.4133 19.4128 54.4918 20.069L54.3435 17.0179L56.6954 15.165Z" fill="#F07735"/>
<path d="M59.2849 7.43474C60.2698 7.56659 61.1704 8.10665 61.8001 8.943L64.6044 8.39924L65.6988 5.54449C64.9219 4.49629 63.9524 3.63717 62.8527 3.02246C61.753 2.40774 60.5474 2.05106 59.3136 1.97537L60.6647 4.66223L59.2849 7.43474Z" fill="#FD5A01"/>
<path d="M60.0252 15.6353C59.0873 15.9745 58.066 15.9098 57.1704 15.4545L54.8496 17.2815L54.9986 20.3585C56.1159 20.9365 57.3315 21.2538 58.5677 21.2902C59.8038 21.3266 61.0334 21.0813 62.1777 20.5699L59.8856 18.785L60.0252 15.6353Z" fill="#F07735"/>
<path d="M68.1702 14.7871L65.5155 15.8389L63.2227 13.9359C62.9464 14.9737 62.3167 15.857 61.4627 16.405L61.5251 19.5149L63.9421 21.129C65.0129 20.4514 65.9422 19.5372 66.6703 18.4451C67.3984 17.353 67.9092 16.1071 68.1702 14.7871Z" fill="#F29461"/>
<path d="M54.9517 12.0403C54.9393 11.9044 54.933 11.7643 54.933 11.623C54.932 10.6909 55.2147 9.78475 55.7369 9.0469L54.6189 6.167L51.8414 5.64227C50.608 7.34547 49.9387 9.45331 49.9419 11.6236C49.9422 12.1556 49.9824 12.6866 50.0622 13.2114L52.1542 11.1852L54.9517 12.0403Z" fill="#FD5A01"/>
<path d="M56.0991 8.60239C56.8055 7.84698 57.7509 7.41631 58.7401 7.39931L60.103 4.65808L58.7432 1.95422C57.5088 1.96246 56.2895 2.25254 55.1641 2.80579C54.0386 3.35904 53.0318 4.16319 52.2085 5.1665L54.9667 5.68714L56.0991 8.60239Z" fill="#FD5A01"/>
<g style="mix-blend-mode:multiply" opacity="0.2">
<g style="mix-blend-mode:multiply" opacity="0.2">
<path d="M58.8834 18.9502C58.904 18.904 58.9383 18.904 58.9588 18.9502L59.1421 19.358C59.1551 19.3831 59.173 19.4047 59.1946 19.4214C59.2161 19.438 59.2407 19.4494 59.2667 19.4545L59.6768 19.5225C59.7229 19.53 59.7335 19.5653 59.6998 19.6007L59.4032 19.9161C59.3855 19.9371 59.3722 19.9619 59.3642 19.989C59.3561 20.0161 59.3535 20.0448 59.3564 20.0731L59.4262 20.5189C59.4343 20.5692 59.4069 20.591 59.3639 20.5672L58.9975 20.3572C58.9737 20.3454 58.9479 20.3393 58.9218 20.3393C58.8956 20.3393 58.8698 20.3454 58.846 20.3572L58.4796 20.5672C58.4378 20.591 58.4104 20.5672 58.4173 20.5189L58.4877 20.0731C58.4907 20.0448 58.488 20.0161 58.48 19.989C58.4719 19.9619 58.4586 19.9371 58.441 19.9161L58.1449 19.5952C58.1113 19.5599 58.1219 19.5273 58.168 19.5171L58.5781 19.4525C58.6041 19.4472 58.6288 19.4358 58.6503 19.419C58.6718 19.4022 58.6897 19.3805 58.7027 19.3553L58.8834 18.9502Z" fill="#FD5A01"/>
</g>
</g>
</svg>
